<svg width="187" height="178" viewBox="0 0 187 178" fill="none" xmlns="http://www.w3.org/2000/svg">
<path fill-rule="evenodd" clip-rule="evenodd" d="M98.1361 86.7419L116.899 95.5152C118.814 96.278 121.11 95.8966 122.26 94.7523C122.63 94.3833 123.039 94.0149 123.464 93.6334C124.375 92.8126 125.319 91.9607 126.089 90.9376C127.621 89.4119 128.003 87.1233 126.854 85.5971L118.047 66.9063C121.11 61.9478 123.408 56.226 124.94 50.5043L144.852 43.6381C146.766 42.8753 147.915 41.3495 148.298 39.0607V36.3907V33.7205C148.298 31.8133 146.766 29.9059 144.852 29.1431L125.323 21.8956C123.791 16.1739 121.494 10.4522 118.431 5.4934L120.305 1.51514C158.069 12.9216 185.384 47.701 185.384 89.08C185.384 105.014 181.297 119.968 174.119 132.987C173.66 131.914 172.2 131.207 171.094 131.207L155.314 131.977C152.62 128.515 149.542 125.438 146.078 122.746L146.848 106.977C146.848 105.823 146.078 104.285 144.923 103.9C143.384 103.131 142.229 102.746 140.69 102.362C139.535 101.977 137.996 102.362 137.226 103.131L126.833 114.669C122.6 113.9 117.982 113.9 113.748 114.669L103.357 103.131C102.588 101.977 101.048 101.592 99.8935 102.362C99.5554 102.53 99.2179 102.625 98.9127 102.71C98.5233 102.82 98.1852 102.915 97.9687 103.131C97.1994 103.515 96.4295 103.9 96.044 103.9C94.8902 104.285 94.1198 105.823 94.1198 106.977L94.8902 122.746C91.4251 125.438 87.9617 128.515 85.6531 131.977L69.8734 131.207C68.7186 131.207 67.1793 131.977 66.7938 133.13C66.0245 134.669 65.6401 135.823 65.2546 137.361C64.8691 138.515 65.2546 140.053 66.0245 140.822L77.5702 151.207C76.8009 155.438 76.8009 160.053 77.5702 164.284L66.0245 174.669C65.4727 175.035 65.0967 175.578 64.9388 176.169C27.9125 164.245 1.27734 129.632 1.27734 89.08C1.27734 75.1235 4.41417 61.9173 10.0164 50.1057C11.5963 55.8444 13.8941 61.5663 16.9574 66.5248L7.76757 85.5971C7.00207 87.5048 7.38485 89.7933 8.53306 90.9376C8.90351 91.3066 9.27401 91.7151 9.65673 92.1376C10.4631 93.0261 11.3253 93.9765 12.3632 94.7523C13.8941 96.278 16.1919 96.6595 17.7229 95.5152L36.4867 86.7419C41.465 89.7933 47.2074 92.0818 52.9512 93.6081L59.8446 113.443C60.6101 115.35 62.1426 116.495 64.4389 116.876H67.1196H69.7998C71.7151 116.876 73.6287 115.35 74.3958 113.443L81.2875 93.6081C87.7971 92.0818 93.158 89.7933 98.1361 86.7419ZM119.828 175.182C129.703 175.182 137.709 167.29 137.709 157.555C137.709 147.82 129.703 139.929 119.828 139.929C109.953 139.929 101.946 147.82 101.946 157.555C101.946 167.29 109.953 175.182 119.828 175.182ZM92.668 36.2001C92.668 50.0536 81.4012 61.2843 67.5028 61.2843C53.6041 61.2843 42.3372 50.0536 42.3372 36.2001C42.3372 22.3465 53.6041 11.1159 67.5028 11.1159C81.4012 11.1159 92.668 22.3465 92.668 36.2001Z" fill="url(#paint0_linear_1037_23)"/>
<path fill-rule="evenodd" clip-rule="evenodd" d="M121.125 2.89665L120.049 5.18192C122.885 9.94772 125.045 15.3296 126.539 20.7106L145.443 27.7473L145.458 27.7534C147.762 28.6753 149.745 31.009 149.745 33.5877V39.0901L149.727 39.201C149.274 41.87 147.871 43.8288 145.465 44.7848L145.437 44.7959L126.156 51.466C124.662 56.8404 122.504 62.2152 119.671 66.9676L128.124 84.9573C129.651 87.1273 128.994 90.0379 127.217 91.8752C126.39 92.96 125.407 93.8525 124.555 94.6271L124.479 94.6962C124.478 94.6969 124.477 94.6976 124.476 94.6984C124.388 94.7794 124.302 94.8576 124.218 94.9336C123.883 95.2386 123.586 95.5083 123.315 95.7804L123.313 95.7824L123.311 95.7843C121.706 97.3805 118.814 97.7679 116.508 96.8447L116.472 96.8304L98.3059 88.3126C93.5687 91.1605 88.4595 93.33 82.3857 94.8269L75.7232 114.069L75.7115 114.098C74.7915 116.399 72.4534 118.386 69.8714 118.386H64.3649L64.2534 118.367C61.5878 117.912 59.639 116.505 58.6765 114.11L58.6645 114.08L51.9851 94.8156C46.5991 93.3261 41.221 91.171 36.464 88.3381L18.461 96.7795C16.2993 98.2965 13.3787 97.6551 11.5403 95.8695C10.416 95.0146 9.48944 93.9887 8.71395 93.1286C8.7134 93.128 8.71286 93.1274 8.71231 93.1268L8.67008 93.0803C8.295 92.6674 7.96302 92.302 7.63447 91.9725L7.63253 91.9705L7.6306 91.9686C6.04153 90.3618 5.65384 87.4758 6.575 85.172L6.59173 85.1301L15.4949 66.5978C13.1532 62.6646 11.2721 58.3084 9.8242 53.8703C5.22419 64.6977 2.67147 76.6192 2.67147 89.1538C2.67147 128.842 28.41 162.79 64.3568 174.868C64.6116 174.516 64.9261 174.204 65.2898 173.946L76.2329 164.077C75.6072 160.138 75.6074 155.917 76.2331 151.971L65.2007 142.022L65.1757 141.997C64.5719 141.392 64.1843 140.567 63.9973 139.759C63.8131 138.963 63.7931 138.052 64.0629 137.207C64.4592 135.634 64.8699 134.407 65.6542 132.813C66.0015 131.876 66.7435 131.204 67.4635 130.782C68.2165 130.34 69.1203 130.066 69.9658 130.066H69.9986L85.0786 130.806C87.3626 127.606 90.5091 124.766 93.6263 122.3L92.8858 107.137V107.104C92.8858 106.259 93.159 105.354 93.599 104.6C94.0336 103.854 94.735 103.083 95.7218 102.75L95.9294 102.68H96.0859C96.0937 102.678 96.1034 102.676 96.115 102.672C96.1889 102.649 96.2963 102.609 96.4412 102.547C96.6995 102.436 97.0004 102.286 97.3359 102.117C97.5659 101.94 97.8017 101.829 97.9896 101.755C98.2015 101.67 98.43 101.603 98.5975 101.555L98.6504 101.539L98.6572 101.537C98.9441 101.456 99.1516 101.396 99.3437 101.307C101.128 100.173 103.386 100.796 104.521 102.412L114.366 113.374C118.3 112.747 122.508 112.747 126.442 113.374L136.372 102.318L136.4 102.291C137.003 101.692 137.825 101.307 138.631 101.121C139.424 100.938 140.334 100.917 141.179 101.189C142.741 101.584 143.969 101.987 145.565 102.786C146.499 103.136 147.167 103.88 147.587 104.6C148.027 105.354 148.3 106.259 148.3 107.104V107.137L147.56 122.301C150.716 124.819 153.544 127.664 156.06 130.818L171.188 130.075H171.22C172.093 130.075 173.101 130.371 173.945 130.924C180.474 118.435 184.175 104.234 184.175 89.1348C184.175 48.6288 157.783 14.5114 121.125 2.89665ZM9.00592 51.1958C9.00572 51.1951 9.00553 51.1944 9.00533 51.1937L9.00575 51.1952M121.061 0.0786154C120.205 -0.195133 119.42 0.284955 119.105 0.917595L119.098 0.930895L117.385 4.56734L117.379 4.58144C117.148 5.1026 117.231 5.64758 117.451 6.0446L117.464 6.06915L117.479 6.09311C120.39 10.8646 122.6 16.3691 124.095 21.8981C124.248 22.5416 124.738 22.8664 125.027 22.9954L125.065 23.0126L144.48 30.2393C146.003 30.8553 147.074 32.3433 147.074 33.5877V38.8607C146.74 40.6804 145.872 41.7394 144.505 42.2915L124.782 49.1147C124.211 49.3006 123.866 49.7558 123.734 50.1987L123.729 50.216L123.724 50.2335C122.231 55.7664 120.021 61.2751 117.11 66.0411C116.782 66.5567 116.812 67.1395 117.001 67.567L117.007 67.5805L125.818 86.3317L125.901 86.4415C126.547 87.3021 126.457 88.855 125.258 90.0578L125.191 90.1243L125.135 90.1994C124.451 91.1118 123.606 91.8797 122.683 92.7186L122.677 92.724C122.6 92.7937 122.522 92.8646 122.444 92.9363C122.104 93.2445 121.747 93.5694 121.425 93.8919C120.729 94.582 119.051 94.9697 117.533 94.3776L98.933 85.6561L98.9213 85.6508C98.5725 85.4954 98.2129 85.4808 97.8942 85.5541H97.6981L97.3766 85.7514C92.6077 88.6782 87.4634 90.8771 81.2227 92.3598C80.5964 92.4984 80.2258 92.9642 80.069 93.3573L80.0576 93.386L73.2201 113.134C72.6032 114.645 71.1168 115.715 69.8714 115.715H64.5957C62.7865 115.38 61.7267 114.512 61.1668 113.142L54.3359 93.4408C54.1511 92.8728 53.6991 92.5268 53.2545 92.3931L53.2353 92.3873L53.2159 92.3821C47.672 90.8945 42.1612 88.6881 37.3908 85.7775C36.8749 85.4494 36.2909 85.4789 35.8626 85.6698L35.8509 85.675L17.089 94.4723L16.9793 94.5545C16.1192 95.1987 14.5542 95.1097 13.361 93.9131L13.2926 93.8445L13.215 93.7864C12.296 93.0994 11.5091 92.2392 10.6964 91.3379L10.6322 91.2672C10.2714 90.87 9.90147 90.4627 9.52821 90.0882C8.83861 89.3886 8.45367 87.7144 9.04017 86.2028L18.141 67.2591C18.3564 66.8175 18.4005 66.2154 18.0618 65.6816C15.2606 61.0912 13.1059 55.8133 11.5746 50.4618C11.1894 49.1099 9.18805 48.7382 8.51675 50.2274C3.05561 62.0581 0 75.2427 0 89.1538C0 130.329 26.9012 165.491 64.3386 177.676L64.3563 177.682L64.3741 177.687C65.2221 177.937 66.076 177.478 66.3756 176.698C66.463 176.477 66.6251 176.266 66.8692 176.101L66.9467 176.049L78.4315 165.692C78.435 165.689 78.4386 165.686 78.4421 165.683C78.8368 165.33 79.0654 164.781 78.9602 164.19C78.2607 160.207 78.2601 155.859 78.959 151.865C79.0672 151.282 78.8387 150.72 78.4424 150.366C78.4387 150.363 78.4351 150.359 78.4315 150.356L67.0482 140.091C66.8824 139.914 66.6996 139.587 66.6 139.157C66.4977 138.715 66.5145 138.297 66.6136 138.002L66.63 137.953L66.6426 137.902C67.0113 136.433 67.3685 135.37 68.0835 133.927L68.1241 133.845L68.1532 133.758C68.2096 133.59 68.4049 133.327 68.8151 133.086C69.2052 132.858 69.6335 132.744 69.9389 132.737L85.5063 133.502C86.0957 133.542 86.6376 133.259 86.9512 132.792C89.1165 129.599 92.3425 126.692 95.6906 124.075C96.1601 123.714 96.3224 123.187 96.3224 122.772V122.739L95.5576 107.077C95.5639 106.769 95.678 106.338 95.9067 105.945C96.1048 105.606 96.3173 105.414 96.4786 105.325C96.6387 105.3 96.782 105.262 96.8956 105.227C97.0997 105.165 97.3064 105.083 97.4992 105C97.882 104.835 98.3047 104.621 98.6799 104.431L98.8568 104.341L98.9559 104.246C98.962 104.243 98.9693 104.24 98.9779 104.237C98.9938 104.23 99.012 104.223 99.0334 104.216C99.0623 104.206 99.0969 104.194 99.1389 104.181C99.2121 104.158 99.2889 104.136 99.3888 104.106C99.3912 104.106 99.3936 104.105 99.396 104.104L99.4198 104.098C99.709 104.016 100.15 103.892 100.601 103.666L100.678 103.628L100.749 103.58C101.224 103.26 101.957 103.376 102.355 103.977L102.409 104.059L112.748 115.57C112.751 115.573 112.754 115.577 112.757 115.58C113.109 115.976 113.66 116.208 114.255 116.101C118.234 115.4 122.568 115.4 126.548 116.1C127.135 116.21 127.698 115.978 128.051 115.58C128.054 115.577 128.057 115.573 128.06 115.57L138.302 104.167C138.478 104.004 138.804 103.823 139.232 103.724C139.673 103.622 140.087 103.639 140.38 103.738L140.429 103.755L140.479 103.767C141.95 104.138 143.005 104.487 144.436 105.209L144.521 105.252L144.611 105.282C144.777 105.338 145.039 105.533 145.279 105.945C145.508 106.338 145.622 106.769 145.629 107.077L144.864 122.739V122.772C144.864 123.187 145.026 123.714 145.496 124.075C148.785 126.646 151.708 129.587 154.285 132.88C154.645 133.35 155.171 133.514 155.588 133.514H155.621L171.248 132.747C171.832 132.758 172.597 133.117 172.922 133.558L172.932 133.571L172.942 133.584C173.654 134.502 175.095 134.416 175.669 133.37L175.671 133.367L175.672 133.364C182.793 120.215 186.847 105.163 186.847 89.1348C186.847 47.1127 159.251 11.7679 121.061 0.0786154ZM67.595 12.265C54.4292 12.265 43.7589 22.9393 43.7589 36.0979C43.7589 49.2565 54.4292 59.9308 67.595 59.9308C80.7609 59.9308 91.4312 49.2565 91.4312 36.0979C91.4312 22.9393 80.7609 12.265 67.595 12.265ZM41.0874 36.0979C41.0874 21.464 52.9537 9.59358 67.595 9.59358C82.2364 9.59358 94.1027 21.464 94.1027 36.0979C94.1027 50.7319 82.2364 62.6023 67.595 62.6023C52.9537 62.6023 41.0874 50.7319 41.0874 36.0979ZM100.716 157.858C100.716 147.34 109.338 138.837 119.941 138.837C130.544 138.837 139.167 147.34 139.167 157.858C139.167 168.377 130.544 176.879 119.941 176.879C109.338 176.879 100.716 168.377 100.716 157.858ZM119.941 141.509C110.785 141.509 103.388 148.844 103.388 157.858C103.388 166.872 110.785 174.208 119.941 174.208C129.098 174.208 136.495 166.872 136.495 157.858C136.495 148.844 129.098 141.509 119.941 141.509Z" fill="url(#paint1_linear_1037_23)"/>
<defs>
<linearGradient id="paint0_linear_1037_23" x1="57.1901" y1="17.7168" x2="137.135" y2="176.418" gradientUnits="userSpaceOnUse">
<stop stop-color="#19FBFF"/>
<stop offset="0.192708" stop-color="#1FA6FF"/>
<stop offset="0.395833" stop-color="#896BFF"/>
<stop offset="0.614583" stop-color="#FF2CFB"/>
<stop offset="0.817708" stop-color="#F7CE58"/>
<stop offset="1" stop-color="#F09343"/>
</linearGradient>
<linearGradient id="paint1_linear_1037_23" x1="64.2497" y1="27.318" x2="123.551" y2="157.216" gradientUnits="userSpaceOnUse">
<stop stop-color="#F1F2FF"/>
<stop offset="0.127458" stop-color="#19FBFF"/>
<stop offset="0.223958" stop-color="#1FA6FF"/>
<stop offset="0.348958" stop-color="#896BFF"/>
<stop offset="0.479167" stop-color="#F1F2FF"/>
<stop offset="0.609375" stop-color="#FF2CFB"/>
<stop offset="0.723958" stop-color="#F7CE58"/>
<stop offset="0.859375" stop-color="#F09343"/>
<stop offset="1" stop-color="#F1F2FF"/>
</linearGradient>
</defs>
</svg>
